<svg id="Capa_1" enable-background="new 0 0 512 512" height="512" viewBox="0 0 512 512" width="512" xmlns="http://www.w3.org/2000/svg"><g id="XMLID_32_"><path id="XMLID_3776_" d="m105.602 360h64.488v30.083h-64.488z" fill="#574d8c" transform="matrix(.707 -.707 .707 .707 -224.82 207.319)"/><path id="XMLID_3771_" d="m343.894 121.371h65.164v30.083h-65.164z" fill="#3e3373" transform="matrix(.707 -.707 .707 .707 13.809 306.163)"/><path id="XMLID_150_" d="m94.671 370.375c-12.311-12.311-32.343-12.311-44.655 0l-30.153 30.153c-4.752 4.752-7.369 11.071-7.369 17.791s2.618 13.039 7.369 17.791c5.296 5.295 12.611 7.945 20.069 7.266l22.503-2.046 9.907 9.907-2.046 22.503c-.678 7.458 1.97 14.773 7.266 20.069 4.905 4.905 11.348 7.357 17.791 7.357s12.886-2.453 17.791-7.357l30.153-30.153c5.964-5.964 9.248-13.893 9.248-22.327s-3.284-16.364-9.248-22.327z" fill="#80d4ff"/><path id="XMLID_153_" d="m495.482 75.891c-5.295-5.295-12.603-7.941-20.07-7.267l-22.502 2.046-9.907-9.907 2.046-22.503c.679-7.458-1.97-14.773-7.266-20.069-9.809-9.81-25.772-9.81-35.582 0l-30.153 30.153c-12.311 12.311-12.311 32.343 0 44.655l48.627 48.627c5.964 5.964 13.893 9.248 22.327 9.248s16.364-3.284 22.326-9.248l30.153-30.153c4.752-4.752 7.369-11.07 7.369-17.791 0-6.722-2.617-13.039-7.368-17.791z" fill="#8095ff"/><path id="XMLID_3871_" d="m97.142 97.012c-37.133 37.133-59.664 84.977-64.708 136.566l-11.341-11.152-21.093 21.45 46.586 45.81 46.243-45.854-21.183-21.362-8.637 8.565c12.223-95.599 94.101-169.731 192.969-169.731v-30.084c-60.001 0-116.41 23.366-158.836 65.792z" fill="#d1e9ff"/><path id="XMLID_356_" d="m512 257.866-46.243-45.854-46.586 45.81 21.093 21.45 9.76-9.598c-7.116 100.843-91.424 180.717-194.046 180.717v30.083c60 0 116.409-23.365 158.836-65.792 39.375-39.376 62.318-90.798 65.416-145.955l10.589 10.5z" fill="#d2d6f8"/><path id="XMLID_33_" d="m267.068 387.163c65.441 0 111.288-21.69 132.366-79.951 5.806-16.044 8.975-33.342 8.975-51.362 0-8.153-.652-16.165-1.895-23.966-3.119-19.505-20-27.748-29.83-44.026-9.607-15.909-12.03-39.943-26.616-51.337-25.691-20.065-57.98-32.039-93.027-32.039-29.512 0-57.068 8.483-80.372 23.144-42.618 26.813-60.969 74.274-60.969 128.224 0 15.603-7.651 30.675-3.239 44.844 18.702 60.176 74.005 104.379 139.746 106.444l4.833.08z" fill="#80d4ff"/><path id="XMLID_284_" d="m406.514 231.883c-3.119-19.505-20-27.748-29.83-44.026-9.607-15.909-12.03-39.943-26.616-51.337-25.691-20.065-57.98-32.039-93.027-32.039v102.717l10.028 25.236-10.028 27.242v79.066l10.028 48.42c65.441 0 111.288-21.69 132.366-79.951 5.806-16.044 8.975-33.342 8.975-51.362-.001-8.152-.653-16.164-1.896-23.966z" fill="#8095ff"/><path id="XMLID_3781_" d="m406.514 231.883-77.745 12.424-38.697 28.739-33.031-13.37v-52.478l47.07-3.353 5.986-43.393 39.972-23.933c29.51 23.055 50.278 56.798 56.445 95.364z" fill="#00ee84"/><path id="XMLID_40_" d="m257.041 338.742 46.067-31.531h96.326c-21.078 58.261-76.953 100.006-142.394 100.006v-68.475z" fill="#00ee84"/><g fill="#68ffb1"><path id="XMLID_3782_" d="m196.222 182.387-17.779 60.758-65.982 57.549c-4.412-14.169-6.789-29.241-6.789-44.844 0-53.949 28.378-101.41 70.996-128.225z"/><path id="XMLID_3766_" d="m197.796 309.746h30.083v28.997h-30.083z"/></g></g></svg>